<!DOCTYPE svg PUBLIC "-//W3C//DTD SVG 1.1//EN" "http://www.w3.org/Graphics/SVG/1.1/DTD/svg11.dtd">
<!-- Uploaded to: SVG Repo, www.svgrepo.com, Transformed by: SVG Repo Mixer Tools -->
<svg version="1.1" id="Layer_1" xmlns="http://www.w3.org/2000/svg" xmlns:xlink="http://www.w3.org/1999/xlink" viewBox="0 0 512 512" xml:space="preserve" width="256px" height="256px" fill="#000000">
<g id="SVGRepo_bgCarrier" stroke-width="0"/>
<g id="SVGRepo_tracerCarrier" stroke-linecap="round" stroke-linejoin="round"/>
<g id="SVGRepo_iconCarrier"> <path style="fill:#f5d07f;" d="M452.714,80.65c-1.473-5.894-6.77-10.029-12.845-10.029h-14.634c-6.076,0-11.372,4.136-12.846,10.029 l-6.319,25.281v8.828h52.966v-8.828L452.714,80.65z"/> <path style="fill:#b39500;" d="M430.045,80.65c1.346-5.384,5.929-9.137,11.335-9.774c-0.512-0.061-0.985-0.255-1.511-0.255h-14.634 c-6.076,0-11.372,4.136-12.846,10.029l-6.319,25.281v8.828h17.655v-8.828L430.045,80.65z"/> <path style="fill:#f5d07f;" d="M99.61,80.65c-1.473-5.894-6.77-10.029-12.845-10.029H72.131c-6.076,0-11.372,4.136-12.846,10.029 l-6.319,25.281v8.828h52.966v-8.828L99.61,80.65z"/> <path style="fill:#b39500;" d="M76.941,80.65c1.346-5.384,5.929-9.137,11.335-9.774c-0.512-0.06-0.985-0.255-1.511-0.255H72.131 c-6.076,0-11.372,4.136-12.846,10.029l-6.319,25.281v8.828h17.655v-8.828L76.941,80.65z"/> <path style="fill:#f5d07f;" d="M361.931,70.621H150.069c-4.875,0-8.828,3.953-8.828,8.828v35.31h229.517v-35.31 C370.759,74.573,366.806,70.621,361.931,70.621z"/> <path style="fill:#E4EAF8;" d="M485.517,105.931H26.483c-4.875,0-8.828,3.953-8.828,8.828v300.138h476.69V114.759 C494.345,109.884,490.392,105.931,485.517,105.931z"/> <circle style="fill:#F2F5FC;" cx="256" cy="256" r="95.658"/> <rect x="17.655" y="388.414" style="fill:#D5DCED;" width="476.69" height="26.483"/> <g> <path style="fill:#f5d07f;" d="M352.586,256c0-6.535-0.655-13.069-1.956-19.423c-0.974-4.776-5.646-7.862-10.414-6.879 c-4.776,0.974-7.853,5.638-6.879,10.414c1.06,5.19,1.594,10.535,1.594,15.887c0,27.978-14.465,52.921-37.107,66.987l0.495-0.694 c2.828-3.975,1.906-9.483-2.06-12.319c-3.982-2.819-9.483-1.906-12.319,2.06l-18.492,25.931c-1.768,2.483-2.13,5.698-0.966,8.509 s3.699,4.828,6.698,5.327l31.405,5.259c0.491,0.086,0.983,0.12,1.465,0.12c4.233,0,7.975-3.052,8.698-7.371 c0.802-4.81-2.44-9.362-7.25-10.164l-0.94-0.158C333.754,322.6,352.586,291.292,352.586,256z"/> <path style="fill:#f5d07f;" d="M237.775,332.81c-32.47-7.659-55.978-34.457-60.022-66.876c1.65,2.614,4.448,4.169,7.41,4.169 c1.311,0,2.638-0.294,3.887-0.905c4.38-2.155,6.173-7.448,4.025-11.819l-14.06-28.569c-1.345-2.733-4-4.577-7.034-4.888 c-3.009-0.301-6.001,0.974-7.862,3.371l-19.518,25.164c-2.991,3.853-2.284,9.405,1.56,12.388c3.871,3,9.397,2.284,12.388-1.56 l1.11-1.431c2.526,42.475,32.227,78.263,74.062,88.147c0.681,0.156,1.362,0.233,2.035,0.233c4,0,7.62-2.733,8.586-6.802 C245.465,338.69,242.526,333.931,237.775,332.81z"/> <path style="fill:#f5d07f;" d="M290.517,196.724c-1.345,4.681,1.354,9.578,6.044,10.922l30.603,8.81 c0.802,0.233,1.621,0.345,2.44,0.345c2.146,0,4.258-0.785,5.897-2.259c2.268-2.035,3.328-5.095,2.802-8.095l-5.5-31.371 c-0.845-4.793-5.362-7.991-10.225-7.172c-4.802,0.845-8.009,5.422-7.172,10.225l0.353,2.015 c-16.844-13.325-37.69-20.73-59.758-20.73c-29.94,0-57.689,13.543-76.138,37.146c-3,3.844-2.319,9.397,1.517,12.396 c1.621,1.259,3.534,1.87,5.431,1.87c2.63,0,5.224-1.164,6.966-3.388c15.078-19.302,37.759-30.37,62.225-30.37 c16.007,0,31.203,4.818,44.055,13.503C295.832,190.076,291.729,192.506,290.517,196.724z"/> <path style="fill:#f5d07f;" d="M503.172,441.379H8.828c-4.875,0-8.828-3.953-8.828-8.828v-17.655c0-4.875,3.953-8.828,8.828-8.828 h494.345c4.875,0,8.828,3.953,8.828,8.828v17.655C512,437.427,508.047,441.379,503.172,441.379z"/> </g> <g> <path style="fill:#ff7605;" d="M97.103,176.552h-35.31c-4.879,0-8.828-3.948-8.828-8.828c0-4.879,3.948-8.828,8.828-8.828h35.31 c4.879,0,8.828,3.948,8.828,8.828C105.931,172.604,101.983,176.552,97.103,176.552z"/> <path style="fill:#ff7605;" d="M450.207,158.897h-8.828v-8.828c0-4.879-3.948-8.828-8.828-8.828c-4.879,0-8.828,3.948-8.828,8.828 v8.828h-8.828c-4.879,0-8.828,3.948-8.828,8.828c0,4.879,3.948,8.828,8.828,8.828h8.828v8.828c0,4.879,3.948,8.828,8.828,8.828 c4.879,0,8.828-3.948,8.828-8.828v-8.828h8.828c4.879,0,8.828-3.948,8.828-8.828C459.034,162.845,455.086,158.897,450.207,158.897z "/> </g> </g>
</svg>